<svg xmlns="http://www.w3.org/2000/svg" viewBox="0 0 1000 1000" role="img" aria-label="Amaya project visual">
  <defs>
    <linearGradient id="sky" x1="0" x2="1" y1="0" y2="1">
      <stop offset="0" stop-color="#d8edf4"/>
      <stop offset=".58" stop-color="#f2e8d8"/>
      <stop offset="1" stop-color="#87996f"/>
    </linearGradient>
    <linearGradient id="tower" x1="0" x2="1">
      <stop offset="0" stop-color="#f7f3eb"/>
      <stop offset="1" stop-color="#c8b79d"/>
    </linearGradient>
  </defs>
  <rect width="1000" height="1000" fill="url(#sky)"/>
  <circle cx="778" cy="190" r="86" fill="#fff7df" opacity=".7"/>
  <rect x="226" y="232" width="248" height="536" rx="18" fill="url(#tower)"/>
  <rect x="486" y="178" width="292" height="590" rx="20" fill="#d7c8b2"/>
  <g fill="#6f8090" opacity=".72">
    <rect x="272" y="284" width="52" height="58" rx="4"/>
    <rect x="370" y="284" width="52" height="58" rx="4"/>
    <rect x="272" y="392" width="52" height="58" rx="4"/>
    <rect x="370" y="392" width="52" height="58" rx="4"/>
    <rect x="272" y="500" width="52" height="58" rx="4"/>
    <rect x="370" y="500" width="52" height="58" rx="4"/>
    <rect x="545" y="252" width="58" height="64" rx="4"/>
    <rect x="674" y="252" width="58" height="64" rx="4"/>
    <rect x="545" y="380" width="58" height="64" rx="4"/>
    <rect x="674" y="380" width="58" height="64" rx="4"/>
    <rect x="545" y="508" width="58" height="64" rx="4"/>
    <rect x="674" y="508" width="58" height="64" rx="4"/>
  </g>
  <rect x="156" y="724" width="720" height="118" rx="59" fill="#526b4d"/>
  <path d="M0 803c121-44 240-63 357-57 102 6 202 31 301 35 118 5 232-20 342-77v296H0z" fill="#405738"/>
  <text x="64" y="912" fill="#fff" font-family="Georgia, serif" font-size="76" font-weight="700">Amaya</text>
</svg>
